<svg width="17" height="15" viewBox="0 0 17 15" fill="none" xmlns="http://www.w3.org/2000/svg">
<path fill-rule="evenodd" clip-rule="evenodd" d="M1.6076 2.33705L2.3956 6.87505H7.2656C7.46451 6.87505 7.65527 6.95406 7.79593 7.09472C7.93658 7.23537 8.0156 7.42613 8.0156 7.62505C8.0156 7.82396 7.93658 8.01472 7.79593 8.15538C7.65527 8.29603 7.46451 8.37505 7.2656 8.37505H2.3956L1.6076 12.913L13.9446 7.62505L1.6076 2.33705ZM1.0046 7.62505L0.0795964 2.30505C0.0382315 2.06709 0.0618988 1.82238 0.148099 1.59677C0.234298 1.37115 0.37983 1.17301 0.569323 1.02326C0.758816 0.873505 0.985235 0.777711 1.22466 0.745991C1.46409 0.714271 1.70765 0.747803 1.9296 0.843046L15.3316 6.58705C15.5345 6.67434 15.7073 6.81918 15.8288 7.00366C15.9503 7.18814 16.015 7.40417 16.015 7.62505C16.015 7.84592 15.9503 8.06195 15.8288 8.24643C15.7073 8.43091 15.5345 8.57575 15.3316 8.66305L1.9286 14.407C1.70656 14.5024 1.46289 14.5359 1.22336 14.5042C0.98382 14.4724 0.757315 14.3765 0.567785 14.2266C0.378255 14.0768 0.232744 13.8785 0.146635 13.6527C0.0605258 13.4269 0.0370178 13.1821 0.0785964 12.944L1.0046 7.62505Z" fill="white"/>
</svg>
